<svg version="1.1" id="Layer_1" xmlns="http://www.w3.org/2000/svg" xmlns:xlink="http://www.w3.org/1999/xlink" x="0px" y="0px"
	 width="100%" viewBox="0 0 1024 1024" enable-background="new 0 0 1024 1024" xml:space="preserve">
<path fill="#000000" opacity="1.000000" stroke="none" 
	d="
M1.000000,984.468628 
	C7.655592,984.291687 7.960917,984.434998 8.067333,991.224304 
	C8.238972,1002.174805 8.173091,1013.129028 8.103769,1024.540771 
	C5.688149,1025.000000 3.376298,1025.000000 1.000000,1025.000000 
	C1.000000,1011.645813 1.000000,998.291565 1.000000,984.468628 
z"/>
<path fill="#000000" opacity="1.000000" stroke="none" 
	d="
M295.952271,586.337830 
	C278.130890,586.327637 260.801331,586.237610 243.472809,586.333618 
	C233.639771,586.388123 223.866043,585.539368 214.077698,584.868347 
	C212.718201,584.775085 211.242706,584.295776 210.980225,586.240784 
	C210.786804,587.674255 211.973648,588.516357 213.116928,588.547180 
	C218.062698,588.680725 220.532166,592.615417 223.833954,595.263184 
	C226.949982,597.762024 230.041016,599.439270 234.329483,597.752014 
	C244.032211,593.934631 243.750381,594.366455 250.687622,601.936035 
	C258.570221,610.537170 265.437164,619.970703 273.364319,628.515137 
	C285.479462,641.573853 297.469757,654.749084 309.663757,667.733398 
	C312.790710,671.063049 316.370148,674.010437 320.645447,676.044006 
	C302.778320,648.012451 279.299957,624.691589 257.705475,598.976624 
	C260.622253,597.820557 263.295959,595.129150 266.018463,592.439148 
	C267.263489,591.208984 269.893555,591.851990 271.091980,593.234558 
	C275.952820,598.842224 283.316498,600.511841 288.936798,604.973267 
	C293.876251,608.894226 299.128815,612.443848 303.994598,616.490112 
	C305.014435,617.338196 306.088745,618.183594 307.268616,618.765320 
	C312.187958,621.190796 316.379150,618.795349 316.611359,613.359192 
	C316.789062,609.199646 316.642944,605.027161 316.760010,600.863770 
	C316.798584,599.492371 316.281158,597.756409 318.554596,596.943115 
	C319.973907,600.336609 320.920471,603.725098 320.086639,607.421936 
	C319.234314,611.200745 319.119110,615.048645 319.454987,618.860779 
	C319.837738,623.204041 322.692413,624.631714 326.360443,622.372986 
	C331.074646,619.470032 336.180756,617.525024 341.268250,615.430176 
	C344.924042,613.924927 346.461182,614.764404 347.316650,618.373901 
	C347.676361,619.891663 347.979889,621.726868 350.433868,622.353882 
	C354.063293,618.747253 352.724213,614.073303 352.349182,609.881775 
	C352.074707,606.814026 352.363281,603.899841 352.845917,600.976868 
	C353.154999,599.105103 353.666260,596.939453 356.771790,597.063782 
	C358.161957,600.359802 357.053802,603.852600 357.306824,607.218567 
	C357.481201,609.538330 357.374573,611.882874 357.325989,614.214905 
	C357.265839,617.101440 357.838135,620.116577 361.088226,620.291931 
	C365.007599,620.503418 364.223358,616.834656 364.608429,614.361938 
	C364.760406,613.385986 364.775970,612.388855 364.869080,611.205261 
	C368.256073,609.591003 371.670776,610.935852 375.395996,611.099426 
	C375.973602,606.604248 376.440613,602.163086 377.142609,597.759399 
	C377.716675,594.158081 378.095459,590.151917 382.419739,588.934204 
	C386.068512,587.906616 388.480408,590.332336 390.281647,593.019348 
	C392.551300,596.405334 394.552429,600.195557 391.128357,603.915466 
	C388.805481,606.439087 389.756073,609.026123 390.525421,612.015198 
	C388.251099,611.018250 388.152191,608.577515 386.202454,608.093750 
	C384.286133,616.570923 388.406433,623.977234 396.292419,626.113098 
	C397.799530,626.521301 398.930206,627.159912 399.925415,628.464905 
	C411.130432,643.157898 423.000183,657.280762 435.712738,670.712585 
	C441.753632,677.095337 446.351562,684.825989 453.816711,689.893616 
	C455.365326,690.944885 455.241150,692.828308 455.220337,694.488220 
	C455.155548,699.652283 455.391022,704.854248 454.845642,709.970764 
	C453.800537,719.775940 454.730774,729.212463 458.362274,738.416870 
	C459.548431,741.423279 460.706360,744.545349 460.595764,747.773254 
	C458.179016,748.973267 457.110413,747.468567 456.011383,746.298096 
	C436.976349,726.025208 417.903748,705.787170 398.966217,685.423462 
	C390.467163,676.284363 382.291199,666.845337 373.850861,657.650574 
	C372.624695,656.314819 371.351166,653.907593 369.000885,655.025391 
	C366.860809,656.043091 367.313324,658.473694 367.393402,660.428589 
	C368.279846,682.072083 368.278046,703.722778 368.083740,725.378113 
	C367.956879,739.521606 360.329895,746.424866 346.237854,746.636353 
	C332.499054,746.842529 321.834747,741.592590 312.943665,731.578979 
	C296.475372,713.031616 279.904510,694.575256 263.365997,676.090332 
	C261.940948,674.497559 260.673737,672.684387 258.350739,671.983704 
	C258.041748,672.345581 257.487122,672.691040 257.480194,673.047180 
	C257.253357,684.694336 256.974792,696.342163 256.934937,707.990662 
	C256.909668,715.374268 259.354828,722.027710 263.751526,727.974609 
	C264.517700,729.010986 265.426361,730.111755 264.834869,731.635132 
	C263.752228,732.573059 262.936066,731.800903 262.330841,731.052490 
	C251.749649,717.968628 240.533676,705.440430 228.615906,693.578430 
	C223.018494,688.007141 221.687012,681.306885 221.658234,673.997192 
	C221.609024,661.499084 221.651459,649.000549 221.672577,636.502197 
	C221.692444,624.748596 217.485641,615.192078 207.613892,608.291565 
	C196.726593,600.681213 191.448807,590.206665 191.679916,576.779907 
	C192.003372,557.987793 191.194534,539.171570 193.051956,519.973633 
	C196.612717,521.690491 198.254501,525.020691 200.568237,527.602539 
	C207.003174,534.783142 212.936935,542.435608 220.997452,548.008545 
	C225.054047,550.813232 229.150909,552.602234 234.352188,552.524841 
	C248.674728,552.311768 263.007233,552.524475 277.331177,552.806458 
	C281.418488,552.886902 282.823792,551.580322 282.803101,547.394043 
	C282.674591,521.398560 282.818115,495.401917 282.791260,469.405731 
	C282.780609,459.092133 277.175507,453.454102 266.701752,453.325989 
	C252.557312,453.152985 238.407593,453.625702 224.332321,451.465851 
	C217.259888,450.380646 211.105164,447.122864 204.687378,444.401001 
	C199.492554,442.197815 197.601059,443.182007 196.431381,448.773010 
	C195.475815,453.340668 194.929199,457.976318 194.935089,462.666412 
	C194.936218,463.568756 195.123886,464.709564 193.171783,465.555939 
	C190.856293,389.372467 192.037125,313.527740 193.615646,237.204620 
	C209.478973,253.826477 226.045914,269.460663 241.322296,287.676270 
	C235.315903,290.851593 236.345856,295.771759 236.319946,300.346497 
	C236.109634,337.490021 235.514389,374.633942 236.228714,411.777283 
	C236.369705,419.108032 237.073410,419.384705 244.447815,419.724670 
	C255.263885,420.223328 266.007416,418.305237 276.880432,419.561371 
	C297.038818,421.890198 321.225922,439.572449 325.354309,463.156677 
	C326.509338,469.755035 326.861298,476.422699 326.954651,483.027344 
	C327.312653,508.352509 327.413422,533.686584 327.148956,559.012512 
	C327.050262,568.462341 324.224182,577.216064 315.264709,582.387939 
	C309.473907,585.730713 303.048065,586.589111 295.952271,586.337830 
M380.160339,601.621338 
	C380.187500,620.257019 380.187500,620.257019 382.909912,622.307068 
	C384.307617,619.388977 383.962189,616.297485 383.455841,613.564453 
	C382.627472,609.093018 383.404358,605.954407 387.680725,603.728638 
	C390.227051,602.403320 391.792328,599.817200 389.978455,597.067200 
	C388.362244,594.616943 387.111664,590.670288 383.198608,591.544800 
	C379.601013,592.348877 380.494568,595.961060 380.282562,598.680237 
	C380.231018,599.341736 380.215607,600.006042 380.160339,601.621338 
z"/>
<path fill="#000000" opacity="1.000000" stroke="none" 
	d="
M408.796448,595.540161 
	C413.027893,594.102905 415.470673,596.204834 417.589417,598.988464 
	C418.515869,600.205750 418.653961,601.746155 417.255646,602.427002 
	C415.721802,603.173828 414.096832,602.422607 414.010193,600.554016 
	C413.920349,598.615662 413.700500,597.235352 411.350006,597.364380 
	C408.916962,597.497986 407.866119,599.059204 407.425293,601.193054 
	C406.406311,606.125732 410.060699,613.452576 414.993896,614.424438 
	C419.558411,615.323547 423.594421,617.484131 428.035309,618.481262 
	C429.924896,618.905518 431.886871,619.007507 433.996063,619.279114 
	C434.996429,614.797546 433.670502,610.566589 435.455353,606.007019 
	C437.620911,611.084717 434.561646,616.756714 439.209747,621.542542 
	C441.832886,613.852661 448.692444,611.262268 454.156006,607.111389 
	C459.202209,603.277527 463.707794,604.300903 467.233185,609.481934 
	C469.913788,613.421448 471.546387,618.615112 478.007355,618.431091 
	C480.145660,618.370117 480.440430,623.096436 484.505249,621.587952 
	C484.597076,616.998718 485.362701,612.107605 484.049438,607.267273 
	C482.977386,603.316162 485.302521,598.167175 490.338654,595.702271 
	C490.338654,601.675476 490.338470,607.207031 490.338715,612.738647 
	C490.339111,621.160706 490.521362,621.324341 498.614746,620.174438 
	C498.859070,623.483093 498.859070,623.483093 490.026733,625.165161 
	C494.590759,631.017029 497.491699,637.673462 505.281982,639.799927 
	C512.860352,641.868469 519.859375,645.303833 526.322815,649.769836 
	C530.904541,652.935669 535.720703,655.377319 541.370300,656.027771 
	C548.047607,656.796570 552.145386,661.654175 556.317017,666.137085 
	C561.246277,671.434204 566.088745,671.643066 570.686951,666.175964 
	C573.013672,663.409424 574.901123,664.905212 576.489380,666.666382 
	C582.170349,672.965454 587.218445,679.919312 593.403137,685.658752 
	C601.365051,693.047485 602.535950,701.989014 602.191467,711.947144 
	C601.851929,721.761169 602.015259,731.599060 602.207214,741.421631 
	C602.284180,745.364014 601.168274,747.357300 596.870056,747.111389 
	C576.740784,745.960022 556.553223,747.031067 536.447083,745.955566 
	C525.424133,745.365906 514.181824,744.181091 504.302338,737.973755 
	C497.660431,733.800598 492.920502,727.721680 487.860626,722.051758 
	C467.141998,698.834900 446.737457,675.338074 426.131287,652.020325 
	C421.950775,647.289673 417.122162,643.146912 413.617889,637.799011 
	C411.787720,635.005981 410.401794,632.497131 412.762390,629.184937 
	C414.520325,626.718384 413.321869,625.145691 410.401642,624.876221 
	C405.161469,624.392639 403.412140,621.341919 403.716797,616.355713 
	C403.970276,612.207886 403.716522,608.031067 403.764679,603.867981 
	C403.805878,600.306152 405.009583,597.348694 408.796448,595.540161 
M491.291931,677.367920 
	C492.603607,679.291260 493.946289,681.194397 495.219238,683.143005 
	C496.906281,685.725525 499.347168,686.418030 502.181152,685.841370 
	C505.471405,685.171875 506.158966,683.060974 503.939453,680.496521 
	C501.365784,677.522827 498.086090,675.530701 494.336884,674.470276 
	C492.637207,673.989563 490.367371,673.491211 491.291931,677.367920 
M415.083313,620.551025 
	C416.100525,620.145996 417.316559,619.935303 417.221222,618.134216 
	C412.757751,618.426392 410.379883,615.030823 407.557922,612.222412 
	C405.638763,617.958923 407.737274,620.358582 415.083313,620.551025 
z"/>
<path fill="#000000" opacity="1.000000" stroke="none" 
	d="
M445.307251,564.000000 
	C445.307129,572.295776 445.307129,580.091614 445.307129,587.970703 
	C439.153107,587.970703 433.337830,588.453735 427.639008,587.845703 
	C420.861298,587.122498 417.719574,582.741455 417.705200,575.168701 
	C417.655457,549.011108 417.678131,522.853394 417.679291,496.695709 
	C417.679749,485.699463 417.706268,474.703247 417.699707,463.707001 
	C417.696167,457.777802 416.037018,455.856201 410.311554,455.326935 
	C402.349030,454.590881 394.382965,454.274994 386.396332,455.140839 
	C380.043060,455.829590 375.641022,458.908386 373.038147,464.842743 
	C370.521973,470.579529 369.322906,476.462982 369.314728,482.732391 
	C369.274506,513.554260 369.122040,544.376038 368.953613,575.197510 
	C368.934540,578.687317 368.494812,582.172913 368.380737,585.664673 
	C368.280396,588.735596 366.742126,589.588501 363.840759,589.397644 
	C355.667694,588.860046 355.693848,588.938965 355.646729,580.905029 
	C355.469116,550.618103 354.767853,520.324463 355.184784,490.046021 
	C355.989929,431.571838 355.549835,373.099670 355.719147,314.626953 
	C355.723755,313.032410 355.248657,311.304932 356.471649,309.787109 
	C359.084473,309.531586 360.187744,311.621124 361.598541,313.145050 
	C381.051025,334.156555 400.534912,355.139343 419.901642,376.229706 
	C427.333801,384.323303 434.501587,392.660126 441.764893,400.908051 
	C444.961945,404.538483 445.356445,408.954102 445.352478,413.552734 
	C445.309326,463.535126 445.315002,513.517578 445.307251,564.000000 
M398.341431,388.935669 
	C398.463837,400.558746 397.985779,412.191895 398.912415,423.801392 
	C399.079742,425.897644 398.693176,428.181732 401.321045,429.289185 
	C412.139008,433.848297 421.640442,427.735016 421.683441,416.024384 
	C421.725464,404.575317 415.217224,396.442505 407.434204,389.152435 
	C405.130829,386.994965 402.990265,384.245728 399.613525,383.719604 
	C397.984589,385.031372 398.489136,386.632416 398.341431,388.935669 
z"/>
<path fill="#000000" opacity="1.000000" stroke="none" 
	d="
M863.468506,703.452393 
	C863.674255,715.880981 863.701050,727.854492 866.405090,739.650146 
	C867.960571,746.435181 867.217834,746.755188 860.469116,746.041687 
	C855.827026,745.550842 852.793457,743.672913 850.869141,739.440735 
	C847.233582,731.444763 840.075500,727.453918 832.546631,724.061401 
	C830.103333,722.960388 829.211548,721.783813 829.400757,718.829590 
	C829.889465,711.196838 830.008850,703.519165 829.210449,695.872437 
	C828.996582,693.823975 828.582642,691.910156 826.683960,690.697205 
	C811.614868,681.069824 800.455505,667.247131 788.185913,654.637573 
	C783.205261,649.518921 778.874390,643.774536 774.064514,638.481445 
	C769.940491,633.943176 774.597290,631.247070 776.110657,628.003235 
	C777.473877,625.081299 779.832703,623.501282 783.448792,624.404541 
	C793.167969,626.832275 796.886536,624.484497 798.908203,614.649841 
	C799.857849,610.030518 801.660583,606.213623 806.042175,603.815002 
	C809.391724,601.981506 811.415344,598.918640 812.447144,595.220764 
	C813.163574,592.653503 813.941711,590.103516 814.687622,587.544434 
	C817.436401,578.114319 823.014038,572.517517 833.480530,571.987183 
	C843.343201,571.487366 844.137207,569.854248 843.315674,559.689148 
	C842.847107,553.890625 842.648254,548.047302 843.301331,542.232422 
	C843.363464,541.679382 843.960266,541.186462 844.339661,540.619629 
	C847.287231,541.787170 847.244507,544.196960 847.306091,546.505737 
	C847.661438,559.819824 847.415771,573.180176 848.463196,586.438782 
	C850.098572,607.138489 850.887146,627.891968 852.997253,648.568359 
	C854.479797,663.095398 855.594116,677.702393 855.758423,692.342102 
	C855.776428,693.941284 856.147095,695.536499 857.196777,697.150513 
	C857.660095,692.299500 858.138672,687.449951 858.584167,682.597290 
	C861.461487,651.252563 860.872925,619.750854 862.861572,588.372986 
	C863.447693,579.124939 865.456238,569.958496 866.964844,560.779663 
	C868.677002,550.362610 868.021790,548.948608 858.406006,543.912903 
	C857.861816,543.627930 857.436829,543.115356 856.263611,542.122620 
	C860.156189,541.240601 863.831787,541.446777 866.103821,538.259277 
	C866.648193,537.495483 868.303955,538.357849 869.282776,539.045471 
	C872.837524,541.542725 876.487183,543.779663 880.740784,545.012146 
	C884.097656,545.984924 882.860596,548.637756 882.291687,550.831970 
	C879.861877,560.204712 878.061401,569.643066 878.210754,579.402588 
	C878.264465,582.908752 878.959290,585.603882 882.619324,586.864136 
	C884.869568,587.638855 885.615601,589.698059 886.574280,591.709229 
	C891.015869,601.025635 895.677734,610.236755 900.164185,619.532104 
	C901.832825,622.989136 904.064758,624.722473 908.233521,624.838684 
	C915.369080,625.037781 917.372498,627.844910 915.915344,634.927551 
	C914.109802,643.703979 911.990845,652.416809 909.935608,661.140198 
	C909.540833,662.815796 909.454651,664.352173 910.041138,666.016357 
	C916.922607,685.543335 919.490234,706.098694 924.291565,726.123169 
	C925.258789,730.156982 925.892517,734.271423 926.656616,738.353027 
	C927.032227,740.359375 927.543762,742.578003 924.637878,743.044434 
	C922.200195,743.435669 919.846252,743.081726 919.030701,740.196655 
	C917.854553,736.035583 916.645508,731.874329 915.719177,727.654236 
	C914.103577,720.294617 911.234131,713.385132 908.527039,706.405396 
	C907.638672,704.114685 906.450562,702.576111 903.736023,703.435486 
	C901.235352,704.227112 899.482544,702.740295 897.939026,701.312256 
	C890.729431,694.641724 881.682861,691.021057 873.319580,686.273499 
	C869.758423,684.252014 867.604736,686.204285 866.282837,689.335571 
	C864.447083,693.684143 864.168335,698.392090 863.468506,703.452393 
M883.511719,620.045227 
	C882.566101,618.969238 881.931946,617.154297 880.069641,617.814209 
	C878.395935,618.407288 878.491882,620.131592 878.306519,621.629639 
	C877.390625,629.032104 876.492798,636.437988 875.458801,643.824524 
	C873.884338,655.072144 872.309631,666.071228 880.282104,676.162476 
	C882.618225,679.119385 884.255188,679.638611 887.047058,678.482056 
	C890.144531,677.198853 890.162170,674.636597 888.512451,672.316101 
	C886.158020,669.004456 886.964417,666.262878 888.996338,663.215027 
	C892.371643,658.152405 894.395081,652.807190 893.693176,646.362915 
	C892.656189,636.842285 889.435059,628.350037 883.511719,620.045227 
z"/>
<path fill="#000000" opacity="1.000000" stroke="none" 
	d="
M604.798157,581.934204 
	C602.789124,578.977478 602.674622,576.016174 602.677368,572.975342 
	C602.699707,547.811035 602.981873,522.641479 602.550903,497.484375 
	C602.299744,482.825470 602.264404,468.187378 602.658630,453.538422 
	C602.855896,446.207184 603.493530,438.911926 605.625854,431.893158 
	C607.958740,424.214478 610.886414,422.214691 618.912292,421.603546 
	C640.044250,419.994446 661.211243,421.128815 682.359497,420.804413 
	C685.149292,420.761627 688.016052,421.290527 690.732666,421.995789 
	C694.623657,423.005890 697.053894,425.518677 697.286621,429.790009 
	C697.603516,435.603546 698.278076,441.412659 698.294067,447.225037 
	C698.386658,480.888153 698.350830,514.551697 698.312073,548.215088 
	C698.301697,557.208008 697.286560,566.142883 696.176941,575.046387 
	C695.217712,582.743347 690.656555,586.220459 681.680298,586.291504 
	C665.849304,586.416870 650.017029,586.370789 634.185303,586.411011 
	C627.371338,586.428345 620.585999,587.515503 613.732605,586.521301 
	C610.255493,586.016846 607.319397,584.928345 604.798157,581.934204 
M619.259888,493.500000 
	C618.818237,509.126434 620.106628,524.773254 618.519226,540.396118 
	C618.094360,544.576660 620.488098,546.736023 624.927795,546.711548 
	C641.739197,546.618835 658.551575,546.699036 675.363281,546.632507 
	C680.492920,546.612183 682.674316,544.484253 682.606689,539.315369 
	C682.493591,530.673157 681.846558,522.033142 681.891602,513.394653 
	C681.985168,495.423584 682.438354,477.454681 682.631409,459.483704 
	C682.707703,452.376862 680.561279,450.373077 673.393677,450.338318 
	C658.579407,450.266449 643.765137,450.200195 628.950745,450.159912 
	C620.355164,450.136566 619.287415,451.235626 619.272217,460.041260 
	C619.253601,470.860809 619.264221,481.680420 619.259888,493.500000 
z"/>
<path fill="#000000" opacity="1.000000" stroke="none" 
	d="
M563.307007,486.000122 
	C563.033264,513.141602 562.801453,539.783569 562.469177,566.424316 
	C562.292114,580.621704 555.606445,587.181152 541.469543,587.206055 
	C527.811218,587.230103 514.151245,587.319946 500.494751,587.154541 
	C484.810028,586.964478 477.796417,579.879333 478.085632,564.370483 
	C478.920685,519.585632 478.537659,474.797302 478.661133,430.010468 
	C478.680603,422.949951 481.315155,420.607819 488.066956,421.383698 
	C492.483063,421.891144 494.397308,424.221344 494.382080,428.702911 
	C494.296051,454.021027 494.343506,479.339569 494.319702,504.657959 
	C494.309845,515.151855 494.177979,525.645874 494.210510,536.139526 
	C494.235382,544.159119 497.154144,546.825439 505.125214,546.753113 
	C516.784485,546.647339 528.445068,546.703369 540.104919,546.650574 
	C546.384705,546.622131 548.165283,544.765503 547.921753,538.515076 
	C546.644714,505.729706 546.078735,472.944611 547.229431,440.136719 
	C547.395447,435.403717 545.759583,430.690979 548.193665,426.006683 
	C550.440918,421.681915 553.815796,420.798096 558.172852,421.560272 
	C562.745300,422.360107 564.782349,425.000977 564.351135,429.613159 
	C562.611877,448.215729 563.544128,466.868958 563.307007,486.000122 
z"/>
<path fill="#000000" opacity="1.000000" stroke="none" 
	d="
M816.271484,476.943665 
	C813.282410,495.564636 810.252380,513.733826 807.391418,531.929688 
	C804.635681,549.456848 801.980774,567.000977 799.466919,584.564148 
	C799.031311,587.607361 797.674377,588.435059 794.895386,588.391296 
	C787.400696,588.273071 779.900818,588.425598 772.408203,588.250488 
	C764.990356,588.077148 759.666565,583.580017 758.756042,576.198486 
	C757.475830,565.820251 756.936279,555.350952 755.666199,544.971191 
	C753.288269,525.536499 751.061523,506.084991 748.231384,486.701263 
	C745.498840,467.986786 743.078552,449.209229 741.908630,430.310883 
	C741.729126,427.411316 741.195984,423.302612 744.269470,422.300385 
	C748.454224,420.935822 753.534851,421.071533 757.292542,423.493622 
	C758.986816,424.585632 759.185852,428.614075 759.355530,431.354065 
	C760.443665,448.917847 763.666260,466.220154 765.558228,483.681610 
	C766.559937,492.926361 767.473083,502.182281 768.282959,511.445709 
	C768.990784,519.541809 769.498047,527.655518 770.146301,536.473633 
	C773.103760,517.842896 776.690918,500.101501 781.835022,482.474731 
	C788.015808,500.738861 787.893433,519.951904 791.411987,538.533936 
	C791.338196,526.008057 794.258362,513.865112 795.786133,501.563080 
	C798.833374,477.025116 803.464111,452.740326 807.501404,428.359650 
	C808.219177,424.024689 809.708496,422.130737 814.166321,422.596741 
	C816.952026,422.887939 819.792969,422.650909 822.971741,422.650909 
	C823.971680,430.306152 823.173889,437.474365 821.896423,444.638062 
	C820.003174,455.254669 818.165710,465.881226 816.271484,476.943665 
z"/>
<path fill="#000000" opacity="1.000000" stroke="none" 
	d="
M282.846130,231.232788 
	C284.806213,228.517929 285.861908,230.773804 286.795837,231.766098 
	C299.905548,245.694992 312.960907,259.675232 325.983917,273.685333 
	C327.679047,275.508942 329.376953,277.313019 326.853302,280.084869 
	C325.972107,281.052765 326.342163,283.277588 326.357666,284.926392 
	C326.581451,308.735107 325.928864,332.548035 326.832520,356.356049 
	C327.027283,361.486115 326.836090,366.737396 325.952698,371.780487 
	C323.870636,383.666626 314.776428,390.740631 300.487793,391.202911 
	C288.181305,391.601044 275.847168,391.114624 263.525116,391.084869 
	C260.731201,391.078094 259.663666,389.754242 259.690552,387.092346 
	C259.742676,381.930206 259.747711,376.766541 259.679565,371.604706 
	C259.645630,369.036743 260.863281,367.962524 263.323730,368.058960 
	C263.489166,368.065460 263.656097,368.040314 263.821991,368.025665 
	C277.540985,366.814789 282.643280,361.205170 282.661346,347.019989 
	C282.708008,310.380615 282.687897,273.741180 282.699829,237.101746 
	C282.700409,235.270264 282.751740,233.438828 282.846130,231.232788 
z"/>
<path fill="#000000" opacity="1.000000" stroke="none" 
	d="
M651.065308,659.818604 
	C655.744812,658.543762 659.610779,660.252991 663.520813,661.632751 
	C669.979309,663.911743 672.580261,662.820557 675.217590,656.437683 
	C679.223694,646.742065 683.141663,637.010071 687.091797,627.291382 
	C687.972229,625.125244 688.874634,622.972656 690.467346,621.205139 
	C693.224182,618.145691 696.292603,617.361328 699.636292,620.206055 
	C702.747375,622.852966 706.248474,624.932983 710.181030,625.672058 
	C714.217712,626.430725 715.252991,628.653564 715.242493,632.294739 
	C715.206604,644.792786 714.959412,657.303894 715.425903,669.786316 
	C716.103638,687.921326 716.717468,706.044861 716.092834,724.189575 
	C715.875488,730.503540 715.577637,736.814697 715.309082,743.126831 
	C715.245789,744.614746 715.440552,746.342407 713.822449,747.096130 
	C711.822876,748.027710 710.721558,746.249451 709.686279,745.100586 
	C702.444214,737.064026 695.388672,728.858093 688.086731,720.877197 
	C675.723450,707.364380 663.218994,693.980835 650.786072,680.531677 
	C649.882935,679.554688 649.052368,678.506836 648.233154,677.456726 
	C642.736084,670.410156 643.425659,665.560547 651.065308,659.818604 
z"/>
<path fill="#000000" opacity="1.000000" stroke="none" 
	d="
M232.920807,525.698975 
	C232.786758,534.234680 226.287430,536.320129 219.763824,539.007690 
	C213.485046,533.860840 208.294479,526.682129 202.274872,520.309937 
	C201.591263,519.586365 201.153656,518.499023 200.342072,518.048096 
	C192.920502,513.924500 192.004410,507.272766 192.605988,499.681274 
	C193.065186,493.886414 192.754929,488.033661 192.909729,482.209900 
	C192.960205,480.311310 192.533295,478.132629 194.650711,476.825562 
	C196.888702,476.811554 197.156067,478.685791 197.869507,480.110107 
	C203.008865,490.370331 211.612503,495.468842 222.771332,496.329468 
	C227.040268,496.658691 228.653885,499.275726 229.293640,502.662262 
	C230.711090,510.165497 231.767380,517.736938 232.920807,525.698975 
z"/>
<path fill="#000000" opacity="1.000000" stroke="none" 
	d="
M753.331787,701.000122 
	C753.327454,709.825378 753.412048,718.151978 753.293701,726.475586 
	C753.171936,735.038269 749.646973,740.196533 742.705688,742.482910 
	C742.705688,738.255432 742.762512,734.006470 742.695374,729.759521 
	C742.466492,715.288940 741.752563,700.809692 742.059692,686.351501 
	C742.380676,671.240173 743.776001,656.154297 744.466064,641.046509 
	C744.669617,636.591064 744.063721,632.099548 743.848083,627.623657 
	C743.707642,624.710815 744.748291,623.208923 747.987732,623.919556 
	C751.066223,624.594910 753.811462,623.487366 757.047852,621.743896 
	C755.876892,648.093689 752.456909,674.213684 753.331787,701.000122 
z"/>
<path fill="#000000" opacity="1.000000" stroke="none" 
	d="
M619.434204,707.556763 
	C605.866638,693.071472 592.517822,678.862732 578.930115,664.399597 
	C581.578247,663.142944 583.005676,664.259155 584.519897,664.768738 
	C591.651611,667.168457 598.761597,669.682495 606.497498,668.674927 
	C607.592529,668.532349 608.492981,668.985779 609.168152,669.741150 
	C611.466980,672.313416 614.603149,673.419495 617.564697,674.937866 
	C622.025452,677.224854 625.997742,678.217163 629.754211,672.931458 
	C630.693970,683.246094 628.839050,693.704834 631.834290,703.301147 
	C634.796570,712.791931 639.867615,721.624512 643.849548,730.384827 
	C635.910950,722.985962 627.782043,715.409668 619.434204,707.556763 
z"/>
<path fill="#000000" opacity="1.000000" stroke="none" 
	d="
M564.726196,602.105774 
	C564.953735,599.278198 564.278320,596.696960 566.760132,593.781738 
	C568.523987,602.953552 567.953125,611.156067 566.045471,619.186829 
	C565.212646,622.692810 561.713196,623.585693 558.302368,623.218689 
	C555.110229,622.875244 554.149841,620.598938 553.561707,617.695435 
	C552.378601,611.853821 553.018127,606.088196 553.641724,600.291931 
	C553.789612,598.917542 554.070129,597.639954 556.503174,597.239685 
	C558.691833,603.471985 560.361572,609.878418 561.524414,617.419922 
	C558.179871,615.270081 558.604370,612.314026 556.652771,609.790039 
	C556.502197,612.106201 556.265930,613.841309 556.310181,615.569214 
	C556.358765,617.466248 555.750427,620.087463 558.516968,620.409790 
	C561.105042,620.711365 562.892944,618.974243 563.581116,616.467346 
	C564.829895,611.917786 564.739258,607.236023 564.726196,602.105774 
z"/>
<path fill="#000000" opacity="1.000000" stroke="none" 
	d="
M580.254944,610.825439 
	C580.041931,612.162842 579.920593,613.156311 578.153931,614.109741 
	C577.313904,608.003845 577.178894,602.311584 579.271179,596.780518 
	C579.894043,595.133789 581.775146,594.099792 583.096924,596.221802 
	C585.617310,600.268066 587.080017,604.705261 587.282166,610.429993 
	C583.935913,607.073242 584.745483,602.423645 580.299805,599.459473 
	C580.299805,603.723267 580.299805,607.090027 580.254944,610.825439 
z"/>
<path fill="#000000" opacity="1.000000" stroke="none" 
	d="
M607.802612,605.380493 
	C608.608337,608.914490 610.470215,611.849792 609.890991,615.616516 
	C606.957947,614.218994 607.536133,610.637512 604.777161,609.100342 
	C603.785767,612.639587 606.700684,616.201843 604.351868,620.215149 
	C602.657166,612.628113 601.384277,605.731262 604.255798,598.328735 
	C607.164917,600.091553 606.733398,602.892029 607.802612,605.380493 
z"/>
<path fill="#000000" opacity="1.000000" stroke="none" 
	d="
M436.861633,603.461548 
	C436.142731,602.461182 435.743164,601.586182 435.271118,600.552429 
	C433.367462,603.877869 430.908112,603.234558 428.212860,601.492371 
	C430.163971,598.339050 436.751190,596.571960 439.322479,598.370605 
	C440.684387,599.323181 441.222229,600.741943 440.837097,602.271606 
	C440.322449,604.315735 438.639038,603.791504 436.861633,603.461548 
z"/>
<path fill="#000000" opacity="1.000000" stroke="none" 
	d="
M596.369629,614.273682 
	C594.316284,615.651306 593.656982,613.532654 593.104065,612.654846 
	C590.009277,607.741882 588.209351,602.421204 589.069824,595.223083 
	C593.099548,601.759277 593.651184,608.310608 596.369629,614.273682 
z"/>
<path fill="#000000" opacity="1.000000" stroke="none" 
	d="
M522.109070,620.154114 
	C521.353271,614.914246 516.812378,610.677063 516.717896,604.980042 
	C516.675903,602.449829 516.224487,599.807556 518.219543,597.277710 
	C517.752258,605.209290 524.013855,611.710388 522.109070,620.154114 
z"/>
<path fill="#000000" opacity="1.000000" stroke="none" 
	d="
M612.709412,612.468750 
	C613.401306,607.336731 613.793091,602.503235 617.040161,598.478271 
	C618.416687,604.367981 614.998291,609.516418 615.189758,615.036438 
	C612.758240,615.295288 612.831604,613.999634 612.709412,612.468750 
z"/>
<path fill="#000000" opacity="1.000000" stroke="none" 
	d="
M528.302795,604.939880 
	C528.305542,607.952148 528.305542,610.521423 528.305542,613.294495 
	C523.277283,608.259277 522.092285,608.844543 527.704285,596.998840 
	C528.807983,599.700684 528.074036,602.155518 528.302795,604.939880 
z"/>
<path fill="#000000" opacity="1.000000" stroke="none" 
	d="
M534.720032,597.706177 
	C535.177063,597.239319 535.550171,597.090576 535.923279,596.941895 
	C536.286255,602.999939 534.565674,608.531494 531.863525,613.826660 
	C531.619812,608.323120 533.306580,603.207336 534.720032,597.706177 
z"/>
<path fill="#000000" opacity="1.000000" stroke="none" 
	d="
M363.034149,599.963013 
	C365.014404,597.678955 364.964996,597.710266 366.016327,599.369446 
	C366.674042,600.407471 367.507812,601.333862 368.270325,602.320374 
	C367.737671,604.241882 366.309204,605.231201 364.638031,604.850403 
	C362.085388,604.268921 363.715118,601.789062 363.034149,599.963013 
z"/>
<path fill="#000000" opacity="1.000000" stroke="none" 
	d="
M384.002014,596.193542 
	C385.593597,594.875488 386.808960,595.036194 387.147858,596.795715 
	C387.642242,599.362610 387.102478,601.632019 384.480194,602.999146 
	C381.827026,600.909424 383.558289,598.660339 384.002014,596.193542 
z"/>
</svg>